# xmcd CD database file
# Copyright (C) 1996 Ti Kan
#
# Track frame offsets:
#	150
#	14983
#	29708
#	39838
#	51768
#	58543
#	70708
#	81145
#	91390
#	101548
#	124448
#	135980
#	148565
#
# Disc length: 2195 seconds
#
# Revision: 1
# Processed by: cddbd v1.4b41PL1 Copyright (c) Steve Scherf et al.
# Submitted via: EasyCD 2.21 - (C) 1996 Greg Leichner
#
DISCID=b308910d
DTITLE=Various Atrist - Christmas In The Country
DYEAR=1900
DGENRE=
TTITLE0=The Christmas Song
TTITLE1=Silent Night
TTITLE2=It Came Upon a Midnight Clear
TTITLE3=I Heard The Bells On Christmas Day
TTITLE4=We Wish You A Merry Christmas
TTITLE5=O Christmas Tree
TTITLE6=Winter Wonderland
TTITLE7=Deck The Halls
TTITLE8=Jingle Bells
TTITLE9=Gesu Bambino
TTITLE10=Away In The Manger
TTITLE11=We Three Kings
TTITLE12=O Little Town Of Bethlehem
EXTD=
EXTT0=
EXTT1=
EXTT2=
EXTT3=
EXTT4=
EXTT5=
EXTT6=
EXTT7=
EXTT8=
EXTT9=
EXTT10=
EXTT11=
EXTT12=
PLAYORDER=
